<svg width="48" height="53" viewBox="0 0 48 53" fill="none" xmlns="http://www.w3.org/2000/svg">
<path d="M0.174316 17.2578C12.3123 12.9835 17.3228 11.0848 23.5871 2.46924C29.8515 11.0848 34.862 12.9835 47 17.2578C43.2634 32.5002 37.6473 40.4897 23.5871 52.6411C9.9023 41.2119 3.99753 33.3512 0.174316 17.2578Z" fill="#9F9F9F"/>
<path d="M1.50513 17.8413C12.9532 13.9864 17.6788 10.6287 23.5871 2.8584C29.4953 10.6287 34.221 13.9864 45.669 17.8413C40.621 32.1545 35.5712 39.0362 23.5871 49.7532C11.6029 39.0362 6.55312 32.1545 1.50513 17.8413Z" fill="url(#paint0_linear_373_618)" stroke="url(#paint1_linear_373_618)" stroke-width="2.13223"/>
<path d="M47.1548 17.2622C42.1398 34.2355 36.2886 41.4245 23.6289 52.5512V0.863281C30.5338 10.2454 35.6651 13.8617 47.1548 17.2622Z" fill="white" fill-opacity="0.28"/>
<g clip-path="url(#clip0_373_618)">
<path d="M14.9968 30.8626C13.3795 30.7023 12.541 32.7045 13.8091 33.7071C14.0951 33.9335 14.3908 34.1478 14.6957 34.3501L16.7609 33.0874L14.9968 30.8626Z" fill="#636363"/>
<path d="M32.2929 15.4697C31.2767 14.2186 29.2474 15.0459 29.4099 16.641C29.4543 17.0727 29.4768 17.5103 29.4768 17.9534L31.6077 18.1181L33.2013 16.7371C32.9239 16.2964 32.6202 15.8731 32.2929 15.4697Z" fill="#636363"/>
<path d="M14.9968 30.8627L14.6956 34.3502C16.79 35.7401 19.3115 36.5506 22.0247 36.5506C29.3076 36.5506 35.1746 30.7618 35.1746 23.5761C35.1746 21.0659 34.4523 18.7227 33.2013 16.7373L29.4768 17.9536C29.4768 25.1142 23.5843 30.9288 16.3263 30.9281C15.8773 30.9282 15.4337 30.906 14.9968 30.8627Z" fill="url(#paint2_linear_373_618)"/>
<path d="M32.3453 23.5761C32.3453 21.3859 31.7953 19.3228 30.8241 17.5136L33.2013 16.7373C34.4523 18.7227 35.1746 21.0659 35.1746 23.5761C35.1746 30.7618 29.3076 36.5506 22.0247 36.5506C21.5475 36.5506 21.0763 36.525 20.6122 36.4761C27.2243 35.7826 32.3453 30.2894 32.3453 23.5761Z" fill="#BABABA"/>
<path d="M19.4101 34.2713C23.0134 34.2713 26.3947 32.893 28.931 30.3905C31.4673 27.8879 32.8641 24.5515 32.8641 20.996C32.8641 20.4712 32.8328 19.9419 32.7708 19.4228C32.7511 19.2581 32.5996 19.1404 32.4331 19.1598C32.2662 19.1792 32.1469 19.3284 32.1665 19.493C32.2258 19.9889 32.2558 20.4946 32.2558 20.996C32.2558 24.3912 30.9222 27.5768 28.5008 29.966C26.0794 32.3552 22.851 33.6709 19.4102 33.6709C19.0602 33.6709 18.7041 33.6565 18.3519 33.6281C18.1845 33.6147 18.0375 33.7376 18.0239 33.9028C18.0102 34.0681 18.1348 34.213 18.3023 34.2265C18.6708 34.2562 19.0436 34.2713 19.4101 34.2713Z" fill="#636363"/>
</g>
<path d="M20.8226 22.3353C20.7773 22.2182 20.7015 22.1153 20.603 22.0374C20.5045 21.9595 20.3869 21.9094 20.2625 21.8923L18.057 21.5901C18.0192 21.584 17.9845 21.5658 17.9581 21.5382C17.9317 21.5105 17.915 21.4751 17.9105 21.4371C17.9061 21.3991 17.9142 21.3607 17.9335 21.3278C17.9529 21.2948 17.9825 21.269 18.0178 21.2544L20.0944 20.452C20.2115 20.4068 20.3144 20.3311 20.3923 20.2326C20.4702 20.1342 20.5203 20.0167 20.5374 19.8923L20.8396 17.6868C20.8456 17.6489 20.8638 17.6141 20.8915 17.5875C20.9191 17.5609 20.9547 17.5442 20.9928 17.5397C21.0309 17.5353 21.0694 17.5434 21.1024 17.5629C21.1354 17.5824 21.1612 17.6121 21.1757 17.6476L21.9774 19.7243C22.0226 19.8414 22.0984 19.9443 22.1969 20.0222C22.2954 20.1001 22.413 20.1502 22.5374 20.1672L24.7429 20.4691C24.7809 20.475 24.816 20.4931 24.8426 20.5208C24.8693 20.5485 24.8862 20.5842 24.8906 20.6224C24.8951 20.6606 24.8869 20.6992 24.8673 20.7323C24.8477 20.7653 24.8178 20.7911 24.7822 20.8055L22.7055 21.6072C22.5883 21.6525 22.4855 21.7283 22.4076 21.8268C22.3297 21.9253 22.2796 22.0428 22.2625 22.1673L21.9603 24.3728C21.9543 24.4107 21.9361 24.4455 21.9085 24.4721C21.8808 24.4986 21.8452 24.5154 21.8071 24.5199C21.7691 24.5243 21.7306 24.5162 21.6975 24.4967C21.6645 24.4772 21.6388 24.4475 21.6242 24.412L20.8226 22.3353Z" fill="#A9A9A9"/>
<path d="M23.8253 17.5629L23.9883 18.9589L23.8253 17.5629Z" fill="#A9A9A9"/>
<path d="M24.6048 18.1795L23.2088 18.3424L24.6048 18.1795Z" fill="#A9A9A9"/>
<path d="M18.8117 23.1007L18.8931 23.7986L18.8117 23.1007Z" fill="#A9A9A9"/>
<path d="M19.2014 23.4089L18.5034 23.4904L19.2014 23.4089Z" fill="#A9A9A9"/>
<path d="M23.8253 17.5629L23.9883 18.9589M24.6048 18.1795L23.2088 18.3424M18.8117 23.1007L18.8931 23.7986M19.2014 23.4089L18.5034 23.4904M20.8226 22.3353C20.7773 22.2182 20.7015 22.1153 20.603 22.0374C20.5045 21.9595 20.3869 21.9094 20.2625 21.8923L18.057 21.5901C18.0192 21.584 17.9845 21.5658 17.9581 21.5382C17.9317 21.5105 17.915 21.4751 17.9105 21.4371C17.9061 21.3991 17.9142 21.3607 17.9335 21.3278C17.9529 21.2948 17.9825 21.269 18.0178 21.2544L20.0944 20.452C20.2115 20.4068 20.3144 20.3311 20.3923 20.2326C20.4702 20.1342 20.5203 20.0167 20.5374 19.8923L20.8396 17.6868C20.8456 17.6489 20.8638 17.6141 20.8915 17.5875C20.9191 17.5609 20.9547 17.5442 20.9928 17.5397C21.0309 17.5353 21.0694 17.5434 21.1024 17.5629C21.1354 17.5824 21.1612 17.6121 21.1757 17.6476L21.9774 19.7243C22.0226 19.8414 22.0984 19.9443 22.1969 20.0222C22.2954 20.1001 22.413 20.1502 22.5374 20.1672L24.7429 20.4691C24.7809 20.475 24.816 20.4931 24.8426 20.5208C24.8693 20.5485 24.8862 20.5842 24.8906 20.6224C24.8951 20.6606 24.8869 20.6992 24.8673 20.7323C24.8477 20.7653 24.8178 20.7911 24.7822 20.8055L22.7055 21.6072C22.5883 21.6525 22.4855 21.7283 22.4076 21.8268C22.3297 21.9253 22.2796 22.0428 22.2625 22.1673L21.9603 24.3728C21.9543 24.4107 21.9361 24.4455 21.9085 24.4721C21.8808 24.4986 21.8452 24.5154 21.8071 24.5199C21.7691 24.5243 21.7306 24.5162 21.6975 24.4967C21.6645 24.4772 21.6388 24.4475 21.6242 24.412L20.8226 22.3353Z" stroke="#A9A9A9" stroke-width="0.702732" stroke-linecap="round" stroke-linejoin="round"/>
<defs>
<linearGradient id="paint0_linear_373_618" x1="31.6391" y1="10.2424" x2="17.5617" y2="48.3608" gradientUnits="userSpaceOnUse">
<stop offset="0.185" stop-color="white"/>
<stop offset="1" stop-color="#ADADAD"/>
</linearGradient>
<linearGradient id="paint1_linear_373_618" x1="39.669" y1="-0.873199" x2="15.064" y2="47.8505" gradientUnits="userSpaceOnUse">
<stop stop-color="#808080"/>
<stop offset="1" stop-color="white"/>
</linearGradient>
<linearGradient id="paint2_linear_373_618" x1="24.9351" y1="36.5506" x2="35.8739" y2="8.42803" gradientUnits="userSpaceOnUse">
<stop stop-color="#8C8C8C"/>
<stop offset="0.305" stop-color="white"/>
</linearGradient>
<clipPath id="clip0_373_618">
<rect width="21.9807" height="21.6877" fill="white" transform="matrix(-1 0 0 1 35.1746 14.8623)"/>
</clipPath>
</defs>
</svg>
