<svg width="256" height="71" viewBox="0 0 256 71" fill="none" xmlns="http://www.w3.org/2000/svg">
<g clip-path="url(#clip0_473_588)">
<path d="M26.4457 0.796875C27.8239 1.06921 29.132 1.60151 30.3699 2.38552C32.4867 3.77609 34.6324 5.12128 36.7946 6.42521C38.9238 5.08827 41.0612 3.74308 43.2111 2.3979C44.449 1.61389 45.7611 1.08159 47.1352 0.796875H48.4226C55.1816 2.22459 61.4908 5.97956 65.9431 11.2324C68.1053 13.7866 72.2729 20.43 72.9083 23.6568C73.5975 27.1518 71.8603 23.859 70.9978 22.8976C70.8245 22.7036 68.5427 20.5208 68.423 20.6735C68.2786 20.8633 69.434 24.6471 69.5619 25.3197C69.6981 26.0501 69.8177 26.7557 69.9085 27.4943C70.3211 30.0114 70.35 32.5697 70.2056 35.1074C69.9828 40.059 67.8907 46.2651 64.6144 50.0407C64.2595 50.4492 62.1015 52.6898 61.6847 52.372C61.4 52.1533 62.4357 50.3749 62.5842 49.8962C62.7039 49.5084 62.9762 48.8193 62.7782 48.4603L60.3024 52.2194C58.3011 55.1037 57.0467 56.8161 54.0386 58.7679C48.926 62.0855 41.7338 62.853 38.8536 68.8155C38.701 69.1332 38.474 70.1937 38.3255 70.2721C37.6281 70.6311 30.4359 67.2599 29.3507 66.6739C28.6698 66.3067 27.9972 65.9188 27.337 65.5186C26.6768 65.1183 26.0207 64.6933 25.377 64.26C24.7333 63.8268 24.1061 63.3729 23.483 62.9066C22.8599 62.4403 22.2575 61.9575 21.6592 61.4624C21.0608 60.9672 20.4832 60.4555 19.9096 59.9315C19.336 59.4075 18.7831 58.8669 18.2384 58.3181C17.6938 57.7693 17.1656 57.1999 16.6498 56.6222C16.134 56.0445 15.6306 55.4544 15.1437 54.852C14.6568 54.2495 14.1822 53.6347 13.7283 53.0075C13.2744 52.3803 12.8288 51.7448 12.4038 51.097C11.9788 50.4492 11.5455 49.7559 11.1452 49.0668L10.7986 48.4726C10.745 48.4726 10.6913 48.485 10.6377 48.5015C10.6253 48.5015 10.6171 48.5098 10.6088 48.518C10.6006 48.5304 10.6088 48.5428 10.6088 48.5552C10.712 48.9348 10.7986 49.3309 10.9431 49.694C11.0421 49.9375 11.1535 50.1727 11.2649 50.4079C11.4919 50.8783 11.7353 51.3405 11.9581 51.815C11.987 51.8769 12.0324 51.947 12.0407 52.0131C12.214 53.5027 9.28014 50.3831 9.06557 50.1438C3.03698 43.3065 2.39327 33.0484 4.19648 24.511C4.34916 23.793 5.16617 21.3543 5.14967 20.9128C5.14967 20.789 5.04651 20.7684 4.94748 20.8138C4.8567 20.855 4.77417 20.9128 4.69164 20.9706C4.18823 21.3337 3.70957 21.7339 3.26806 22.1713C2.84717 22.584 2.4758 23.0172 2.13331 23.4959L1.04808 25.0061C0.96143 25.1299 0.858271 25.2578 0.70147 25.295C0.581806 25.3239 0.350731 25.2248 0.305341 25.0969C0.297089 25.068 0.297089 25.035 0.297089 25.002C0.36311 23.6816 0.858271 22.3529 1.36169 21.1439C1.65878 20.43 1.99302 19.7327 2.32725 19.0353C5.89241 11.7152 11.855 5.57105 19.4021 2.36901C21.2053 1.60151 23.0869 0.912413 25.0593 0.796875H26.4457ZM47.4364 33.4363C47.4529 33.4156 47.7665 33.4404 47.8986 33.3537C50.2011 31.8022 53.0359 28.3443 53.1803 25.4724C53.5393 18.2884 46.6153 12.4497 39.7078 15.6765C39.0311 15.9942 37.1123 17.818 36.7905 17.818C36.5223 17.818 34.3683 15.8622 33.5265 15.532C26.293 12.6972 19.5836 18.8249 20.5079 26.1615C20.8091 28.5507 23.3922 31.633 25.2656 33.0773C25.5049 33.2629 26.1362 33.4693 26.1775 33.5559C26.2435 33.6962 25.5586 35.6727 25.4843 36.0854C22.2245 53.482 49.9122 53.7461 48.3195 37.542C48.2493 36.8446 47.3003 33.6013 47.4364 33.4404V33.4363Z" fill="white"/>
<path d="M36.1262 30.6881C37.0505 30.5767 37.7396 30.6964 38.5896 31.0388C38.7629 31.109 39.9183 31.7775 39.9595 31.8476C40.5166 32.8586 38.3626 32.9452 37.9748 33.2258C37.459 33.6013 37.3682 34.8846 36.4191 34.4018C36.0354 34.2038 35.9694 33.5435 35.6434 33.2918C35.1895 32.9411 32.7838 32.7843 33.7741 31.7073C34.0919 31.3607 35.6269 30.7541 36.1262 30.6922V30.6881Z" fill="white"/>
<path d="M118.352 31.5876V52.0626H110.202V33.1309C110.202 31.0347 109.864 29.4543 109.191 28.3856C108.519 27.3128 107.306 26.7805 105.552 26.7805C104.524 26.7805 103.584 26.9991 102.725 27.4365C101.871 27.8739 101.095 28.4681 100.402 29.2191C99.7048 29.966 99.0694 30.7913 98.4917 31.6867V52.0626H90.3422V22.5097L97.2703 19.6873L97.5921 25.3362H98.3308C99.0364 24.3294 99.8864 23.3638 100.881 22.4313C101.875 21.5029 103.035 20.7436 104.363 20.1535C105.688 19.5635 107.198 19.2705 108.886 19.2705C111.411 19.2705 113.417 19.8399 114.725 21.148C117.745 24.1685 118.286 28.8766 118.352 31.5876Z" fill="white"/>
<path d="M138.055 30.6303V52.0626H129.906V33.1309C129.906 31.0347 129.567 29.4543 128.895 28.3856C128.218 27.3128 127.005 26.7805 125.251 26.7805C124.203 26.7805 123.25 26.9991 122.396 27.4365C121.541 27.8739 120.757 28.464 120.052 29.2026C119.94 29.3182 119.833 29.4378 119.73 29.5575C119.52 27.6965 118.975 25.7901 118.422 24.4243C119.029 23.6774 119.627 23.1369 120.39 22.4478C121.426 21.507 122.627 20.7436 123.984 20.1535C125.342 19.5635 126.889 19.2705 128.618 19.2705C131.828 19.2705 134.205 20.2443 135.744 22.192C137.283 24.1396 138.055 26.9496 138.055 30.6303Z" fill="white"/>
<path d="M143.927 24.6471V52.0666H152.076V19.8481L143.927 20.104V24.643V24.6471Z" fill="white"/>
<path d="M158.621 5.0551L166.77 4.2876V52.0624H158.621V5.0551Z" fill="white"/>
<path d="M189.457 52.0625H179.319C178.225 50.6926 168.623 35.5489 168.623 35.5489C168.623 35.5489 177.883 21.5152 178.997 20.104H188.59L178.357 35.52L189.457 52.0625Z" fill="white"/>
<path d="M222.311 52.0625H212.172C211.079 50.6926 201.477 35.5489 201.477 35.5489C201.477 35.5489 210.737 21.5152 211.851 20.104H221.444L211.211 35.52L222.311 52.0625Z" fill="white"/>
<path d="M200.363 52.0624H192.213V5.0551L200.363 4.2876V52.0624Z" fill="white"/>
<path d="M254.463 29.3924C253.758 27.3746 252.701 25.6044 251.303 24.0859C249.9 22.5675 248.167 21.3832 246.103 20.5373C244.04 19.6955 241.639 19.2705 238.899 19.2705C235.35 19.2705 232.338 19.9967 229.866 21.4533C227.399 22.9058 225.521 24.8906 224.238 27.4035C222.955 29.9206 222.311 32.7678 222.311 35.9574C222.311 38.1815 222.653 40.3107 223.338 42.3409C224.023 44.3752 225.059 46.1825 226.45 47.7629C227.84 49.3474 229.586 50.5936 231.682 51.5014C233.778 52.4092 236.237 52.8672 239.06 52.8672C242.526 52.8672 245.489 52.1203 247.948 50.6348C250.407 49.1494 252.285 47.1316 253.58 44.5856C254.876 42.0438 255.52 39.1636 255.52 35.9574C255.52 33.6013 255.169 31.4143 254.463 29.3924ZM246.314 40.8967C245.716 42.4358 244.808 43.6943 243.603 44.6682C242.394 45.642 240.867 46.1289 239.031 46.1289C237.195 46.1289 235.61 45.642 234.36 44.6682C233.11 43.6943 232.173 42.4358 231.554 40.8967C230.931 39.3575 230.621 37.7111 230.621 35.9574C230.621 34.0965 230.939 32.417 231.57 30.9192C232.198 29.4213 233.143 28.2288 234.393 27.3416C235.643 26.4545 237.178 26.0088 238.998 26.0088C240.644 26.0088 242.088 26.4091 243.33 27.2137C244.568 28.0142 245.526 29.1572 246.202 30.6468C246.875 32.1323 247.209 33.9025 247.209 35.9574C247.209 37.7111 246.912 39.3575 246.314 40.8967Z" fill="white"/>
<path d="M152.196 12.5364C150.133 13.3204 148.895 14.4386 148.004 16.7328C147.108 14.4345 145.87 13.3204 143.807 12.5364C143.807 10.2215 145.685 8.34399 148.004 8.34399C150.323 8.34399 152.196 10.2215 152.196 12.5364Z" fill="white"/>
</g>
<defs>
<clipPath id="clip0_473_588">
<rect width="255.223" height="69.5" fill="white" transform="translate(0.297089 0.796875)"/>
</clipPath>
</defs>
</svg>
